<?xml version="1.0" encoding="utf-8"?>
<!-- Generator: Adobe Illustrator 14.0.0, SVG Export Plug-In . SVG Version: 6.00 Build 43363)  -->
<!DOCTYPE svg PUBLIC "-//W3C//DTD SVG 1.1//EN" "http://www.w3.org/Graphics/SVG/1.1/DTD/svg11.dtd">
<svg version="1.1" id="Capa_1" xmlns="http://www.w3.org/2000/svg" xmlns:xlink="http://www.w3.org/1999/xlink" x="0px" y="0px"
	 width="573.262px" height="573.262px" viewBox="0 0 573.262 573.262" enable-background="new 0 0 573.262 573.262"
	 xml:space="preserve">
<g>
	<g>
		<path d="M496.032,173.518c-15.695,8.434-22.207,24.676-19.891,43.774c0.697,5.732-2.215,14.708-6.58,17.789
			c-27.342,19.278-55.244,37.813-83.645,55.488c-10.73,6.68-16.002,2.963-17.646-9.747c-0.562-4.341-0.285-8.81-0.176-13.215
			c0.611-23.799,2.379-47.634,1.596-71.384c-0.273-8.242,1.213-15.243,4.162-21.42c16.189-9.4,33.246-16.503,51.334-21.363
			c13.477,11.901,31.404,14.235,46.893,5.235c16.988-9.874,23.924-30.527,16.539-49.25c-6.715-17.026-25.291-26.924-43.965-23.419
			c-20.041,3.757-31.996,19.343-31.85,40.71c0.023,3.586-0.922,7.181-1.791,10.771c-16.396,5.1-32.076,12.036-46.951,20.738
			c-5.352,1.012-9.834,0.751-14.021-0.934c-6.498-6.883-13.002-13.766-19.502-20.649c14.182-24.264,13.701-41.959-1.559-56.741
			c-13.076-12.664-33.248-14.692-48.797-4.9c-15.802,9.947-22.293,29.943-15.479,47.671c7.438,19.351,19.792,24.896,52.145,21.869
			c9.688,10.253,19.373,20.51,29.059,30.763c6.1,11.273,10.516,23.276,11.176,36.749c0.367,7.421,0.438,14.868,0.33,22.317
			c-27.025-18.694-54.183-37.222-80.956-56.275c-30.123-21.439-59.434-49.213-63.823-87.618c6.14-1.461,11.991-4.19,17.152-8.511
			c4.415-3.696,7.768-7.785,10.171-12.101c3.354-3.084,5.659-7.499,5.896-13.285c1.016-24.904-14.146-44.166-36.316-53.489
			c-18.409-7.74-38.613-0.008-52.62,12.75c-0.743,0.478-1.313,1.069-1.787,1.718c-2.411,2.366-4.643,4.859-6.585,7.458
			c-2.913,3.893-3.403,8.776-2.289,13.383c-4.415,26.899,23.224,50.865,51.082,53.17c3.97,33.921,23.701,60.608,49.221,82.734
			c33.313,28.882,72.494,52.122,108.676,77.206c0.537,0.375,1.072,0.653,1.604,0.869c-0.467,9.445-1.131,18.886-1.855,28.295
			c-1.646,21.241-5.867,41.708-13.314,61.071c-5.625-4.138-9.922-9.838-12.496-16.443c12.574-9.236,14.859-26.088,8.564-39.641
			c-6.297-13.558-24.844-18.548-38.031-13.721c-11.392,4.17-18.151,14.631-18.515,25.722c-1.359,8.396,1.403,17.273,7.382,24.364
			c5.373,6.377,13.811,9.272,22.207,9.147c4.295,11.869,12.451,21.713,22.986,28.318c-3.949,7.729-8.479,15.248-13.66,22.529
			c-12.848,18.047-24.941,20.258-39.968,4.357c-18.413-19.481-35.157-40.612-51.734-61.727c-6.928-8.824-7.801-19.311-5.834-29.869
			c0.853-1.783,1.701-3.566,2.554-5.346c31.962-2.742,45.365-11.119,49.502-30.543c3.978-18.674-4.227-36.781-20.265-44.729
			c-6.324-3.133-13.432-4.463-20.372-4.092c-19.082-1.338-36.316,13.452-42.118,30.641c-5.182,15.353,3.052,31.942,16.185,39.996
			c-2.068,4.333-4.137,8.667-6.206,12.999c-3.692,0.014-7.915-1.688-11.946-5.209c-13.9-12.144-25.994-26.398-40.135-38.218
			c-11.13-9.306-17.765-19.821-20.449-31.661c4.268-20.021,8.54-40.041,12.807-60.062c1.657-0.841,3.529-1.571,5.753-2.163
			c24.745-6.569,35.137-35.81,21.832-57.789c-8.344-13.782-23.668-20.869-39.511-18.266c-17.658,2.901-29.323,14.076-33.007,31.616
			c-3.296,15.708,3.986,31.583,18.005,41.061c2.231,1.506,5.08,3.554,7.274,5.643c-4.443,20.837-8.886,41.673-13.329,62.51
			c-3.77-1.179-7.564-2.236-11.412-3.031c-3.717-26.712-13.109-38.613-31.697-41.384c-19.156-2.855-36.512,6.173-43.538,22.652
			c-7.291,17.095-2.379,36.459,12.077,47.609c16.304,12.575,31.053,10.461,58.421-10.241c5.353,1.032,10.612,2.542,15.79,4.468
			c15.133,13.513,30.38,27.173,45.798,40.723c42.627,37.463,76.063,81.592,100.707,132.106
			c-41.555-6.273-78.226-31.488-98.887-68.996c3.513-3.049,6.573-6.695,8.96-10.857c9.596-16.756,1.044-38.307-14.525-47.638
			c-4.248-2.546-8.654-3.9-13.089-4.345c-3.337-1.522-6.94-2.444-10.686-2.554c-13.619-0.404-24.884,7.1-30.73,18.77
			c-1.938,1.057-3.517,2.871-4.141,5.766c-0.033,0.154-0.049,0.312-0.082,0.469c-1.636,2.525-1.767,5.264-0.951,7.703
			c-0.71,16.707,7.667,31.904,23.787,39.307c8.025,3.686,16.544,4.198,24.459,2.252c24.986,46.477,73.105,77.051,125.346,80.594
			c4.268,9.289,9.368,18.592,11.208,28.24c-4.606,29.617-12.231,58.557-22.534,86.814c-2.383,6.531-0.249,11.709,3.762,14.949
			c0.816,1.664,1.946,3.1,2.889,3.309c24.142,5.32,48.479,8.775,72.62,0.254c2.041-0.723,4.611-4.525,4.725-6.758
			c1.959-3.104,2.75-7.059,1.49-11.674c-8.613-31.5-12.754-63.729-12.045-96.096c1.312-5.729,2.623-11.453,3.957-17.176
			c0.322-0.123,0.641-0.205,0.967-0.367c19.332-9.602,38.662-19.201,57.994-28.797c0.145,0.131,0.27,0.271,0.416,0.402
			c11.551,10.133,28.793,8.363,39.883-1.301c12.162-10.608,10.049-29.494,1.008-40.996c-10.266-13.064-30.928-11.036-42.25-1.172
			c-0.945,0.828-1.604,1.715-2.107,2.625c-0.605,0.555-1.18,1.174-1.686,1.941c-4.252,6.426-5.598,14.268-4.316,21.651
			c-0.213,0.09-0.424,0.135-0.637,0.241c-14.414,7.156-28.824,14.312-43.24,21.473c1.746-6.561,3.578-13.094,5.646-19.551
			c1.021-3.188,2.113-6.346,3.244-9.49c27.973-33.868,69.217-53.574,113.354-54.592c0.127-0.004,0.232-0.035,0.354-0.045
			c0.752,6.275,3.146,12.457,7.436,17.684c12.799,15.6,38.213,19.891,54.121,6.387c15.305-12.992,19-38.707,5.32-54.31
			c-14.57-16.615-40.07-17.01-56.223-2.655c-2.387,2.12-3.24,4.59-3.061,6.951c-1.895,2.195-3.469,4.627-4.688,7.25
			c-0.98-0.311-2.041-0.518-3.26-0.488c-32.992,0.758-63.947,10.686-90.381,28.118c4.193-5.907,8.857-11.562,14.125-16.892
			c29.57-29.914,64.143-52.432,101.438-71.017c5.98-2.982,14.174-3.656,20.906-2.603c18.617,2.913,35.838-3.925,44.234-19.253
			c8.041-14.68,5.504-34.876-5.889-46.793C531.374,168.096,511.741,165.077,496.032,173.518z"/>
	</g>
</g>
</svg>
