<?xml version="1.0" encoding="utf-8"?>
<!-- Generator: Adobe Illustrator 14.0.0, SVG Export Plug-In . SVG Version: 6.00 Build 43363)  -->
<!DOCTYPE svg PUBLIC "-//W3C//DTD SVG 1.1//EN" "http://www.w3.org/Graphics/SVG/1.1/DTD/svg11.dtd">
<svg version="1.1" id="Layer_1" xmlns="http://www.w3.org/2000/svg" xmlns:xlink="http://www.w3.org/1999/xlink" x="0px" y="0px"
	 width="24px" height="24px" viewBox="0 0 24 24" enable-background="new 0 0 24 24" xml:space="preserve">
<line fill="none" stroke="#3E3E3E" stroke-width="0.75" x1="18.514" y1="15.938" x2="18.514" y2="9.569"/>
<line fill="none" stroke="#3E3E3E" stroke-width="0.5" x1="20.139" y1="6.788" x2="21.65" y2="4.771"/>
<circle fill="none" stroke="#3E3E3E" stroke-width="0.25" cx="22.109" cy="4.212" r="0.702"/>
<circle fill="#3E3E3E" stroke="#3E3E3E" stroke-width="0.5" cx="5.158" cy="20.696" r="2.303"/>
<path fill="#3E3E3E" stroke="#3E3E3E" stroke-width="0.5" d="M20.075,17.004c0,0.557-0.453,1.01-1.009,1.01H4.246
	c-0.557,0-1.008-0.453-1.008-1.01l0,0c0-0.556,0.452-1.009,1.008-1.009h14.82C19.622,15.995,20.075,16.448,20.075,17.004
	L20.075,17.004z"/>
<polyline fill="#3E3E3E" stroke="#3E3E3E" stroke-width="0.5" points="15.03,15.811 15.03,11.077 14.968,11.077 11.119,11.077 
	11.119,15.811 "/>
<polygon fill="#3E3E3E" stroke="#3E3E3E" stroke-width="0.5" points="11.119,15.995 5.067,10.446 3.365,12.204 7.569,16.01 "/>
<path fill="#3E3E3E" stroke="#3E3E3E" stroke-width="0.5" d="M22.705,8.807c-1.281,1.281-3.812,1.644-5.091,0.363
	c-1.284-1.28-1.022-3.517-0.017-4.335C19.111,5.843,21.066,7.23,22.705,8.807z"/>
<circle fill="none" stroke="#3E3E3E" stroke-width="0.5" cx="2.765" cy="9.989" r="1.765"/>
<g id="XMLID_1_">
	<g>
		<polygon fill="#3E3E3E" points="1.874,8.292 1.857,3.046 2.623,3.082 3.347,2.897 3.375,8.171 2.665,8.114 		"/>
	</g>
	<g>
		<polygon fill="none" stroke="#3E3E3E" stroke-width="0.25" points="2.665,8.114 1.874,8.292 1.857,3.046 2.623,3.082 3.347,2.897 
			3.375,8.171 		"/>
	</g>
</g>
<circle fill="none" stroke="#3E3E3E" stroke-width="0.35" cx="2.601" cy="1.957" r="1.155"/>
<polyline fill="#3E3E3E" stroke="#3E3E3E" stroke-width="0.25" points="8.467,5.55 3.832,2.097 3.309,2.848 7.787,6.25 "/>
<line fill="none" stroke="#3E3E3E" stroke-width="0.25" x1="8.329" y1="5.503" x2="9.424" y2="5.354"/>
<line fill="none" stroke="#3E3E3E" stroke-width="0.25" x1="7.875" y1="7.238" x2="7.725" y2="6.144"/>
<line fill="none" stroke="#3E3E3E" stroke-width="0.25" x1="9.277" y1="5.314" x2="10.786" y2="6.459"/>
<line fill="none" stroke="#3E3E3E" stroke-width="0.25" x1="7.8" y1="7.107" x2="9.316" y2="8.259"/>
<circle fill="#3E3E3E" stroke="#3E3E3E" stroke-width="0.25" cx="7.918" cy="5.771" r="0.46"/>
<circle fill="#3E3E3E" stroke="#3E3E3E" stroke-width="0.5" cx="17.891" cy="20.62" r="2.303"/>
<circle fill="#3E3E3E" stroke="#3E3E3E" stroke-width="0.5" cx="11.562" cy="20.62" r="2.303"/>
</svg>
