<?xml version="1.0" encoding="utf-8"?>
<!-- Generator: Adobe Illustrator 14.0.0, SVG Export Plug-In . SVG Version: 6.00 Build 43363)  -->
<!DOCTYPE svg PUBLIC "-//W3C//DTD SVG 1.1//EN" "http://www.w3.org/Graphics/SVG/1.1/DTD/svg11.dtd">
<svg version="1.1" id="Layer_1" xmlns="http://www.w3.org/2000/svg" xmlns:xlink="http://www.w3.org/1999/xlink" x="0px" y="0px"
	 width="24px" height="24px" viewBox="0 0 24 24" enable-background="new 0 0 24 24" xml:space="preserve">
<path fill="none" stroke="#3E3E3E" stroke-width="0.75" d="M3.625,11.812c-0.531,0.25-0.969-0.266-0.93-0.725
	c0.05-0.574,0.555-0.998,1.129-0.949c0.717,0.062,1.248,0.693,1.188,1.41c-0.077,0.897-0.867,1.56-1.764,1.484
	c-1.121-0.097-1.951-1.083-1.855-2.204C1.513,9.427,2.747,8.39,4.148,8.51h15.563c1.4-0.121,2.635,0.917,2.756,2.318
	c0.096,1.121-0.734,2.107-1.855,2.203c-0.896,0.078-1.687-0.587-1.764-1.483c-0.061-0.717,0.471-1.349,1.188-1.41
	c0.573-0.05,1.079,0.375,1.129,0.949c0.039,0.459-0.508,1.006-0.978,0.787"/>
<polygon fill="#3E3E3E" stroke="#3E3E3E" stroke-width="0.5" points="2.167,4.083 21.688,4.062 21.688,5.094 20.156,6.562 
	3.833,6.583 2.167,5.042 "/>
<path fill="#3E3E3E" stroke="#3E3E3E" stroke-width="0.5" d="M7.104,10.583c0,2.823-0.01,11.292-0.01,11.292l2.375-1.344
	l-0.011-7.594c0.554-0.69,1.177-0.734,1.646-0.021l0.005,6.662l2.469-1.469l0.005-5.234c0.574-0.659,1.194-0.69,1.667,0v4.297
	l1.547-0.906l-0.006-5.62c-0.011-0.153-0.098-0.212-0.26-0.177l-9.302,0.01C7.184,10.51,7.142,10.544,7.104,10.583z"/>
</svg>
